Motion_sv01_j
version=1
nRows=5
nColumns=43
inDegrees=yes
endheader
time	pelvis_tilt	pelvis_list	pelvis_rotation	pelvis_tx	pelvis_ty	pelvis_tz	hip_flexion_r	hip_adduction_r	hip_rotation_r	knee_angle_r	ankle_angle_r	subtalar_angle_r	mtp_angle_r	hip_flexion_l	hip_adduction_l	hip_rotation_l	knee_angle_l	ankle_angle_l	subtalar_angle_l	mtp_angle_l	lumbar_extension	lumbar_bending	lumbar_rotation	neck_flexion	neck_lateral_bending	neck_rotation	arm_flex_r	arm_add_r	arm_rot_r	elbow_flex_r	pro_sup_r	wrist_flex_r	wrist_dev_r	hand_finger_flex_r	arm_flex_l	arm_add_l	arm_rot_l	elbow_flex_l	pro_sup_l	wrist_flex_l	wrist_dev_l	hand_finger_flex_l
      0.00250000	      3.73464328	      6.53849530	    -82.28277836	     -0.14374250	      0.94419829	      0.18705738	      7.74903497	     -0.09428382	     -5.29403275	    -16.21747898	     17.95273650	     -0.36613229	     -3.04567733	      6.36949134	     -8.58706654	     -9.86303338	     -9.29047388	     -0.88176600	     31.36073474	     15.66223116	    -33.33667337	      1.34380375	     20.69755679	     27.39389426	     -2.41482682	    -27.34209934	     86.92596991	    -46.01258242	     27.84578482	     47.89716453	    142.43626791	    -16.78092445	     -3.16309770	    -25.19406391	     -9.35849346	    -10.54200240	     10.96906854	     92.05549085	    131.01493579	    -13.54555909	    -13.93465276	     15.10477335
      0.00500000	      3.78092129	      6.62432201	    -82.24263725	     -0.14430933	      0.94412738	      0.18768702	      7.72843909	     -0.10388341	     -5.31354837	    -16.10237745	     17.98840231	     -0.36066256	     -3.04217571	      6.39755536	     -8.56165458	     -9.85064193	     -9.23170570	     -0.90622679	     31.34081708	     15.66164165	    -33.32748001	      1.25694792	     20.79219497	     27.42858645	     -2.42256473	    -27.33563106	     87.08669400	    -46.11136193	     27.78743986	     47.77804161	    142.48944120	    -16.74015232	     -3.16312443	    -25.18943649	     -9.32700093	    -10.54872837	     10.93407353	     92.05976417	    131.00626855	    -13.56389460	    -13.92430142	     15.11626435
      0.00750000	      3.94767741	      6.74825141	    -82.26768256	     -0.14448912	      0.94416022	      0.18818607	      7.76466826	     -0.29079721	     -5.31188241	    -16.02752622	     18.01007018	     -0.23013626	     -3.04220571	      6.42252860	     -8.36300385	     -9.82830142	     -9.12109142	     -1.20157205	     31.19797354	     15.65650126	    -33.31419438	      1.09214635	     20.86994213	     27.58005091	     -2.44951446	    -27.42778133	     87.50529039	    -46.24994152	     28.06918514	     47.51881135	    143.11791830	    -16.48286613	     -3.39684269	    -25.22708716	     -9.24483591	    -10.61013101	     11.07893056	     91.99794522	    130.98134919	    -13.59799564	    -13.87921777	     15.23986385
      0.01000000	      3.98379187	      6.82137655	    -82.22788422	     -0.14501658	      0.94405904	      0.18886581	      7.75423777	     -0.29381133	     -5.35106351	    -15.95601658	     18.04460654	     -0.23956959	     -3.03864226	      6.43726998	     -8.35273680	     -9.81391219	     -9.06834044	     -1.19839902	     31.20526632	     15.66081423	    -33.30563718	      1.02745162	     20.96583031	     27.61417420	     -2.46655369	    -27.42831295	     87.65490677	    -46.33284075	     28.02105257	     47.41708240	    143.15982390	    -16.46018375	     -3.36568002	    -25.23563422	     -9.23391056	    -10.61989249	     11.04143305	     92.00664741	    130.97260057	    -13.61494501	    -13.87490942	     15.24767198
      0.01250000	      4.09390799	      6.94257612	    -82.19241203	     -0.14523632	      0.94402359	      0.18938050	      7.78668609	     -0.41297118	     -5.39849809	    -15.87925217	     18.07380906	     -0.15629222	     -3.03595548	      6.50595781	     -8.23259540	     -9.80539460	     -9.01156115	     -1.37647739	     31.22904968	     15.67898976	    -33.28872034	      0.92908655	     21.01016029	     27.79814934	     -2.52172473	    -27.55261737	     88.10369780	    -46.46629386	     28.41288303	     47.16903046	    143.74005586	    -16.24419084	     -3.41967981	    -25.34220990	     -9.15594723	    -10.68109459	     11.16713901	     91.95890382	    130.94934603	    -13.62302200	    -13.85620892	     15.35159563
